<?xml version="1.0" encoding="UTF-8"?>
<svg id="Layer_1" data-name="Layer 1" xmlns="http://www.w3.org/2000/svg" xmlns:xlink="http://www.w3.org/1999/xlink" viewBox="0 0 1025 1027.13">
  <defs>
    <style>
      .cls-1 {
        fill: #f5f6f6;
      }

      .cls-1, .cls-2, .cls-3, .cls-4, .cls-5, .cls-6 {
        stroke-width: 0px;
      }

      .cls-2 {
        fill-rule: evenodd;
      }

      .cls-2, .cls-6 {
        fill: #fff;
      }

      .cls-3 {
        fill: #f04f59;
      }

      .cls-4 {
        fill: #42489b;
      }

      .cls-5 {
        fill: #fff;
      }

      .cls-7 {
        mask: url(#mask);
      }
    </style>
    <mask id="mask" x="621.63" y="623" width="403.37" height="404.13" maskUnits="userSpaceOnUse">
      <g id="mask0">
        <path class="cls-5" d="M823.5,1027c-110.98,0-201.5-90.74-201.5-202s90.52-202,201.5-202,201.5,90.74,201.5,202-90.52,202-201.5,202Z"/>
      </g>
    </mask>
  </defs>
  <g>
    <path class="cls-1" d="M1017.6,825.15c0,5.31-.19,10.52-.68,15.64-.87,10.62-2.51,21.04-5.02,31.08-2.61,10.72-6.18,21.04-10.52,30.89-4.73,10.91-10.43,21.24-16.99,30.89-7.53,11.2-16.22,21.53-25.87,30.89-12.55,12.16-26.74,22.69-42.18,31.08-27.51,15.06-59.17,23.55-92.77,23.55s-65.26-8.59-92.77-23.55c-15.45-8.4-29.64-18.92-42.18-31.08-9.65-9.36-18.34-19.69-25.87-30.89-6.56-9.75-12.26-20.08-16.99-30.89-4.34-9.94-7.82-20.27-10.52-30.89-2.41-9.85-4.15-20.08-5.02-30.5,0-.19-.1-.39-.1-.58-.39-5.21-.68-10.43-.68-15.64s.19-10.23.58-15.25c.1-1.54.29-3.19.39-4.73l-.97-.77c-.77-.58-.39-1.83.58-1.83h.68c.87-7.63,2.22-15.06,3.96-22.4.1-.48.19-.97.39-1.45,1.74-7.05,3.86-14,6.27-20.75,1.25-3.48,2.61-6.85,4.05-10.23.58-1.45,1.25-2.9,1.93-4.25.29-.68.58-1.35.97-2.03,4.05-8.59,8.78-16.8,14-24.62.19-.39.48-.77.77-1.06,2.61-3.76,5.31-7.53,8.11-11.1,5.21-6.56,10.91-12.84,16.89-18.73,12.45-12.16,26.64-22.59,41.99-31.08,27.7-15.25,59.56-24.04,93.54-24.04,6.08,0,12.16.29,18.15.87,27.13,2.51,52.61,10.62,75.39,23.17,15.35,8.49,29.44,18.92,41.9,31.08,9.65,9.36,18.24,19.69,25.77,30.89,6.56,9.75,12.26,20.08,16.89,30.89,4.34,9.94,7.82,20.27,10.43,30.89,2.51,10.14,4.15,20.46,5.02,31.08.19,5.21.48,10.33.48,15.45Z"/>
    <path class="cls-3" d="M842.01,654.87v-20.37c0-.97-.1-1.93-.39-2.8,27.13,2.51,52.61,10.62,75.39,23.17h-75.01Z"/>
    <path class="cls-3" d="M1012,778.82h-169.99v-30.89h159.57c4.34,9.85,7.82,20.18,10.43,30.89Z"/>
    <path class="cls-3" d="M984.68,716.94h-142.68v-30.89h116.9c9.65,9.27,18.24,19.69,25.77,30.89Z"/>
    <path class="cls-3" d="M1017.6,825.15c0,5.31-.19,10.52-.68,15.64h-181.96c4.15-1.45,7.05-5.31,7.05-9.94v-20.95h175.01c.29,5.02.58,10.14.58,15.25Z"/>
    <path class="cls-3" d="M662.55,933.75h321.84c-7.53,11.2-16.22,21.53-25.87,30.89h-270c-9.65-9.27-18.34-19.69-25.97-30.89Z"/>
    <path class="cls-3" d="M730.7,995.82h185.54c-27.51,15.06-59.17,23.55-92.77,23.55-33.59.1-65.16-8.49-92.77-23.55Z"/>
    <path class="cls-3" d="M635.14,871.97h376.77c-2.61,10.72-6.18,21.04-10.52,30.89h-355.82c-4.34-9.94-7.82-20.27-10.43-30.89Z"/>
    <path class="cls-4" d="M842.01,634.5v196.35c0,4.63-2.9,8.59-7.05,9.94-1.16.39-2.32.58-3.57.58h-201.27c0-.19-.1-.39-.1-.58-.39-5.21-.68-10.43-.68-15.64s.19-10.23.58-15.25c.1-1.54.29-3.19.39-4.73l-.87-.77c-.77-.58-.39-1.83.58-1.83h.68c.87-7.63,2.22-15.06,3.96-22.4.1-.48.19-.97.39-1.45,1.74-7.05,3.86-14,6.27-20.75,1.25-3.48,2.61-6.85,4.05-10.23.58-1.45,1.25-2.9,1.93-4.25.29-.68.58-1.35.97-2.03,4.05-8.59,8.78-16.8,14-24.62.19-.39.48-.77.77-1.06,2.61-3.76,5.31-7.53,8.11-11.1,5.21-6.56,10.91-12.84,16.89-18.73,12.45-12.16,26.64-22.59,41.99-31.08,27.7-15.25,59.56-24.04,93.54-24.04,6.08,0,12.16.29,18.15.87.19.97.29,1.83.29,2.8Z"/>
    <path class="cls-1" d="M648.55,742.33c.19.68-.48,1.35-1.16,1.16.29-.68.58-1.35.97-2.03l.19.87Z"/>
    <path class="cls-1" d="M652.22,767.62l-5.89,4.44,2.12,6.76.1.39c.19,1.06-.77,1.64-1.64,1.06l-6.08-4.25-6.08,4.25h0c.1-.48.19-.97.39-1.45,1.74-7.05,3.86-14,6.27-20.75.39.1.58.29.68.58l2.22,7.14h7.34c.97,0,1.35,1.16.58,1.83Z"/>
    <path class="cls-1" d="M652.22,804.4l-5.89,4.44.29,1.06,1.93,6.08c.19.77-.77,1.64-1.64,1.06l-6.08-4.25-6.08,4.25c-.77.58-1.83-.19-1.64-1.06l1.93-6.08.29-1.06-4.92-3.67-.97-.77c-.77-.58-.39-1.83.58-1.83h7.34l2.22-7.14c.77-.77,2.22-.77,2.41,0l2.22,7.14h7.34c1.06,0,1.45,1.25.68,1.83Z"/>
    <path class="cls-1" d="M680.8,712.02l-5.89,4.54.1.39,2.12,6.76c.19,1.06-.77,1.64-1.64,1.06l-5.99-4.34-6.08,4.25c-.77.58-1.83-.19-1.64-1.06l2.12-6.76.1-.39-.87-.68c2.61-3.76,5.31-7.53,8.11-11.1l1.74,5.5h7.34c.97,0,1.35,1.25.48,1.83Z"/>
    <path class="cls-1" d="M670.66,739.91l2.22,7.14h7.34c1.06,0,1.45,1.25.58,1.83l-5.89,4.44,2.22,7.14c.19.77-.77,1.64-1.64,1.06l-6.08-4.25-6.08,4.25c-.77.58-1.83-.19-1.64-1.06l2.22-7.14-5.89-4.44c-.77-.58-.39-1.83.58-1.83h7.53l2.22-7.14c.68-.77,1.93-.77,2.32,0Z"/>
    <path class="cls-1" d="M670.66,776.69l2.22,7.14h7.34c1.06,0,1.45,1.25.58,1.83l-5.89,4.44,2.22,7.14c.19,1.06-.77,1.64-1.64,1.06l-6.08-4.25-6.08,4.25c-.77.58-1.83-.19-1.64-1.06l2.22-7.14-5.89-4.44c-.77-.58-.39-1.83.58-1.83h7.53l2.22-7.14c.68-.77,1.93-.77,2.32,0Z"/>
    <path class="cls-1" d="M699.14,685.18l2.22,7.14h7.34c1.06,0,1.45,1.25.58,1.83l-5.89,4.44,2.22,7.14c.19.77-.77,1.64-1.64,1.06l-6.08-4.25-6.08,4.25c-.77.58-1.83-.19-1.64-1.06l2.22-7.14-5.89-4.44c-.77-.58-.39-1.83.58-1.83h7.34l2.41-7.14c.68-.97,2.12-.97,2.32,0Z"/>
    <path class="cls-1" d="M699.14,721.77l2.22,7.14h7.34c1.06,0,1.45,1.25.58,1.83l-5.89,4.44,2.22,7.14c.19.77-.77,1.64-1.64,1.06l-6.08-4.25-6.08,4.25c-.77.58-1.83-.19-1.64-1.06l2.22-7.14-5.89-4.44c-.77-.58-.39-1.83.58-1.83h7.34l2.41-7.14c.68-.77,2.12-.77,2.32,0Z"/>
    <path class="cls-1" d="M699.14,758.64l2.22,7.14h7.34c1.06,0,1.45,1.25.58,1.83l-5.89,4.44,2.22,7.14c.19,1.06-.77,1.64-1.64,1.06l-6.08-4.25-6.08,4.25c-.77.58-1.83-.19-1.64-1.06l2.22-7.14-5.89-4.44c-.77-.58-.39-1.83.58-1.83h7.34l2.41-7.14c.68-.87,2.12-.87,2.32,0Z"/>
    <path class="cls-1" d="M699.14,795.42l2.22,7.14h7.34c1.06,0,1.45,1.25.58,1.83l-5.89,4.44,2.22,7.14c.19.77-.77,1.64-1.64,1.06l-6.08-4.25-6.08,4.25c-.77.58-1.83-.19-1.64-1.06l2.22-7.14-5.89-4.44c-.77-.58-.39-1.83.58-1.83h7.34l2.41-7.14c.68-.77,2.12-.77,2.32,0Z"/>
    <path class="cls-1" d="M727.81,666.26l2.41,7.14h7.34c1.06,0,1.45,1.25.58,1.83l-5.89,4.44,2.22,7.14c.19,1.06-.77,1.64-1.64,1.06l-6.08-4.25-6.08,4.25c-.77.58-1.83-.19-1.64-1.06l2.22-7.14-5.89-4.44c-.77-.58-.39-1.83.58-1.83h7.34l2.22-7.14c.68-.77,1.83-.77,2.32,0Z"/>
    <path class="cls-1" d="M727.81,703.14l2.41,7.14h7.34c1.06,0,1.45,1.25.58,1.83l-5.89,4.44,2.22,7.14c.19,1.06-.77,1.64-1.64,1.06l-6.08-4.25-6.08,4.25c-.77.58-1.83-.19-1.64-1.06l2.22-7.14-5.89-4.44c-.77-.58-.39-1.83.58-1.83h7.34l2.22-7.14c.68-.87,1.83-.87,2.32,0Z"/>
    <path class="cls-1" d="M727.81,739.91l2.41,7.14h7.34c1.06,0,1.45,1.25.58,1.83l-5.89,4.44,2.22,7.14c.19.77-.77,1.64-1.64,1.06l-6.08-4.25-6.08,4.25c-.77.58-1.83-.19-1.64-1.06l2.22-7.14-5.89-4.44c-.77-.58-.39-1.83.58-1.83h7.34l2.22-7.14c.68-.77,1.83-.77,2.32,0Z"/>
    <path class="cls-1" d="M727.81,776.69l2.41,7.14h7.34c1.06,0,1.45,1.25.58,1.83l-5.89,4.44,2.22,7.14c.19,1.06-.77,1.64-1.64,1.06l-6.08-4.25-6.08,4.25c-.77.58-1.83-.19-1.64-1.06l2.22-7.14-5.89-4.44c-.77-.58-.39-1.83.58-1.83h7.34l2.22-7.14c.68-.77,1.83-.77,2.32,0Z"/>
    <path class="cls-1" d="M756.19,648.4l2.22,7.14h7.53c1.06,0,1.45,1.25.58,1.83l-5.89,4.44,2.22,7.14c.19.77-.77,1.64-1.64,1.06l-6.08-4.25-6.08,4.25c-.77.58-1.83-.19-1.64-1.06l2.22-7.14-5.89-4.44c-.77-.58-.39-1.83.58-1.83h7.34l2.41-7.14c.58-1.06,1.93-1.06,2.12,0Z"/>
    <path class="cls-1" d="M756.19,685.18l2.22,7.14h7.53c1.06,0,1.45,1.25.58,1.83l-5.89,4.44,2.22,7.14c.19.77-.77,1.64-1.64,1.06l-6.08-4.25-6.08,4.25c-.77.58-1.83-.19-1.64-1.06l2.22-7.14-5.89-4.44c-.77-.58-.39-1.83.58-1.83h7.34l2.41-7.14c.58-.97,1.93-.97,2.12,0Z"/>
    <path class="cls-1" d="M756.19,721.77l2.22,7.14h7.53c1.06,0,1.45,1.25.58,1.83l-5.89,4.44,2.22,7.14c.19.77-.77,1.64-1.64,1.06l-6.08-4.25-6.08,4.25c-.77.58-1.83-.19-1.64-1.06l2.22-7.14-5.89-4.44c-.77-.58-.39-1.83.58-1.83h7.34l2.41-7.14c.58-.77,1.93-.77,2.12,0Z"/>
    <path class="cls-1" d="M756.19,758.64l2.22,7.14h7.53c1.06,0,1.45,1.25.58,1.83l-5.89,4.44,2.22,7.14c.19,1.06-.77,1.64-1.64,1.06l-6.08-4.25-6.08,4.25c-.77.58-1.83-.19-1.64-1.06l2.22-7.14-5.89-4.44c-.77-.58-.39-1.83.58-1.83h7.34l2.41-7.14c.58-.87,1.93-.87,2.12,0Z"/>
    <path class="cls-1" d="M756.19,795.42l2.22,7.14h7.53c1.06,0,1.45,1.25.58,1.83l-5.89,4.44,2.22,7.14c.19.77-.77,1.64-1.64,1.06l-6.08-4.25-6.08,4.25c-.77.58-1.83-.19-1.64-1.06l2.22-7.14-5.89-4.44c-.77-.58-.39-1.83.58-1.83h7.34l2.41-7.14c.58-.77,1.93-.77,2.12,0Z"/>
    <path class="cls-1" d="M784.67,666.26l2.41,7.14h7.34c1.06,0,1.45,1.25.58,1.83l-5.89,4.44,2.22,7.14c.19,1.06-.77,1.64-1.64,1.06l-6.08-4.25-6.08,4.25c-.77.58-1.83-.19-1.64-1.06l2.22-7.14-5.89-4.44c-.77-.58-.39-1.83.58-1.83h7.34l2.22-7.14c.87-.77,2.12-.77,2.32,0Z"/>
    <path class="cls-1" d="M784.67,703.14l2.41,7.14h7.34c1.06,0,1.45,1.25.58,1.83l-5.89,4.44,2.22,7.14c.19,1.06-.77,1.64-1.64,1.06l-6.08-4.25-6.08,4.25c-.77.58-1.83-.19-1.64-1.06l2.22-7.14-5.89-4.44c-.77-.58-.39-1.83.58-1.83h7.34l2.22-7.14c.87-.87,2.12-.87,2.32,0Z"/>
    <path class="cls-1" d="M784.67,739.91l2.41,7.14h7.34c1.06,0,1.45,1.25.58,1.83l-5.89,4.44,2.22,7.14c.19.77-.77,1.64-1.64,1.06l-6.08-4.25-6.08,4.25c-.77.58-1.83-.19-1.64-1.06l2.22-7.14-5.89-4.44c-.77-.58-.39-1.83.58-1.83h7.34l2.22-7.14c.87-.77,2.12-.77,2.32,0Z"/>
    <path class="cls-1" d="M784.67,776.69l2.41,7.14h7.34c1.06,0,1.45,1.25.58,1.83l-5.89,4.44,2.22,7.14c.19,1.06-.77,1.64-1.64,1.06l-6.08-4.25-6.08,4.25c-.77.58-1.83-.19-1.64-1.06l2.22-7.14-5.89-4.44c-.77-.58-.39-1.83.58-1.83h7.34l2.22-7.14c.87-.77,2.12-.77,2.32,0Z"/>
    <path class="cls-1" d="M813.34,648.4l2.22,7.14h7.34c1.06,0,1.45,1.25.58,1.83l-5.89,4.44,2.22,7.14c.19.77-.77,1.64-1.64,1.06l-6.08-4.25-6.08,4.25c-.77.58-1.83-.19-1.64-1.06l2.22-7.14-5.89-4.44c-.77-.58-.39-1.83.58-1.83h7.34l2.22-7.14c.87-1.06,2.12-1.06,2.51,0Z"/>
    <path class="cls-1" d="M813.34,685.18l2.22,7.14h7.34c1.06,0,1.45,1.25.58,1.83l-5.89,4.44,2.22,7.14c.19.77-.77,1.64-1.64,1.06l-6.08-4.25-6.08,4.25c-.77.58-1.83-.19-1.64-1.06l2.22-7.14-5.89-4.44c-.77-.58-.39-1.83.58-1.83h7.34l2.22-7.14c.87-.97,2.12-.97,2.51,0Z"/>
    <path class="cls-1" d="M813.34,721.77l2.22,7.14h7.34c1.06,0,1.45,1.25.58,1.83l-5.89,4.44,2.22,7.14c.19.77-.77,1.64-1.64,1.06l-6.08-4.25-6.08,4.25c-.77.58-1.83-.19-1.64-1.06l2.22-7.14-5.89-4.44c-.77-.58-.39-1.83.58-1.83h7.34l2.22-7.14c.87-.77,2.12-.77,2.51,0Z"/>
    <path class="cls-1" d="M813.34,758.64l2.22,7.14h7.34c1.06,0,1.45,1.25.58,1.83l-5.89,4.44,2.22,7.14c.19,1.06-.77,1.64-1.64,1.06l-6.08-4.25-6.08,4.25c-.77.58-1.83-.19-1.64-1.06l2.22-7.14-5.89-4.44c-.77-.58-.39-1.83.58-1.83h7.34l2.22-7.14c.87-.87,2.12-.87,2.51,0Z"/>
    <path class="cls-1" d="M813.34,795.42l2.22,7.14h7.34c1.06,0,1.45,1.25.58,1.83l-5.89,4.44,2.22,7.14c.19.77-.77,1.64-1.64,1.06l-6.08-4.25-6.08,4.25c-.77.58-1.83-.19-1.64-1.06l2.22-7.14-5.89-4.44c-.77-.58-.39-1.83.58-1.83h7.34l2.22-7.14c.87-.77,2.12-.77,2.51,0Z"/>
  </g>
  <g class="cls-7">
    <g id="Flag">
      <path id="Outline" class="cls-6" d="M823.32,630.82c106.63,0,193.95,87.47,193.95,194.28s-87.32,194.29-193.95,194.29-193.96-87.47-193.96-194.29,87.32-194.28,193.96-194.28ZM823.32,623.08c-111.28,0-201.69,90.56-201.69,202.02s90.41,202.03,201.69,202.03,201.68-90.57,201.68-202.03-90.41-202.02-201.68-202.02Z"/>
    </g>
  </g>
  <path id="Plane" class="cls-2" d="M544.06,544.02c-.24-.03-25.09-3.19-28-3.32-.28-.01-.63-.02-1.03-.04-2.27-.09-6.13-.25-8.96-.43-1.95-.13-4.2-1.77-4.28-3.72-.04-1.01-.05-2.16-.06-3.34,0-1.02-.02-2.06-.05-3.05,0-4.31.48-11.36.74-12.98.02-.1.07-.23.12-.32.17-.26.46-.34.77-.34h5.5c.86,0,.89,2.14.78,3.44,0,.08-.01.17-.02.25-.03,1.17-.25,9.91-.25,11.1,0,1.27,2.42,2.29,5.47,2.17,3.02-.13,29.28-1.63,29.77-1.66.02,0,0,0,0,0h.14c3.09-.14,54.89-2.43,60.44-2.68,5.73-.26,6.62-8.67,6.5-15.17-.08-4.04-.95-7.99-1.59-10.39-.39-1.43-1.69-2.38-3.17-2.42l-6.62-.15c-1.01-.02-1.8-.89-1.73-1.9.07-.96.89-1.68,1.84-1.64l16.36.7c1.64.07,2.96,1.3,3.76,2.73.58,1.03,1.46,1.98,2.73,1.98.79,0,1.36-.34,1.76-.82.08-.09.16-.19.24-.28,1.21-1.44,2.56-3.04,4.4-2.98,1.89.07,3.38,1.63,3.35,3.52-.05,3.12-.13,7.6-.21,9.87,0,3.82,1.66,7.4,4.08,7.52.98.05,1.69-.38,2.2-.97,1.2-1.4,2.65-2.92,4.49-2.84l5.57.23c1.89.08,3.31,1.69,3.98,3.47.47,1.27,1.32,2.41,2.85,2.41,1.55.11,2.51-1,3.09-2.25.79-1.71,2.33-3.18,4.21-3.11l35.87,1.29c1.22.04,2.14.9,3.08,1.77.48.45.97.91,1.5,1.25.27.18.6.28,1,.28.72,0,1.32-.33,1.79-.76,1.13-1.05,2.44-2.14,3.98-2.1l14.33.4c1.05.02,2.06-.41,2.76-1.2l.28-.32c1.38-1.56,3.81-1.6,5.39-.24,2.33,2.01,5.66,4.43,8.12,4.35,4.2,0,11.07-5.74,13.75-11.73,1.18-2.66,1.84-4.96,2.21-6.7.4-1.91,2.02-3.5,3.97-3.51,16.33-.05,84.33-.24,90.93-.24,7.51-.13,8.27-19.51,7.76-18.24-.29.75-1.25,3.29-1.99,5.27-.55,1.49-2.03,2.42-3.61,2.3l-102.21-8.31c-1.12-.09-2.12-.71-2.88-1.53-1.53-1.66-4.65-4.26-9.46-4.61-4.52-.32-7.71,1.66-9.44,3.16-1,.87-2.33,1.43-3.65,1.21l-86.85-14.04c-1.1-.18-2.06-.87-2.71-1.77-1.92-2.67-6.81-8.01-15.2-8.2-4.94-.19-7.74,1.07-9.31,2.37-1.42,1.18-3.36,2.35-5.17,2.03-90.1-15.99-99.12-25.51-99.99-26.91-.07-.12-.1-.24-.11-.38-.17-1.63-1.25-13.02-1.25-29.64,0-66.69-28.13-104.82-39.46-104.82-.04,0-.09,0-.13.01-.04,0-.08-.01-.13-.01-11.33,0-39.46,38.13-39.46,104.82,0,16.61-1.09,28-1.25,29.64-.01.14-.04.26-.11.38-.86,1.4-9.89,10.92-99.98,26.91-1.82.32-3.75-.85-5.18-2.03-1.57-1.3-4.37-2.56-9.3-2.37-8.39.19-13.28,5.53-15.21,8.2-.65.9-1.6,1.59-2.7,1.77l-86.86,14.04c-1.32.21-2.64-.34-3.65-1.21-1.73-1.5-4.92-3.48-9.44-3.16-4.8.34-7.93,2.95-9.46,4.61-.76.82-1.76,1.44-2.88,1.53l-102.21,8.31c-1.58.13-3.06-.81-3.61-2.3-.74-1.98-1.69-4.52-1.99-5.27-.51-1.28.26,18.11,7.76,18.24,6.6,0,74.6.2,90.93.24,1.95,0,3.57,1.6,3.97,3.51.37,1.74,1.03,4.05,2.21,6.7,2.67,5.99,9.55,11.73,13.75,11.73,2.46.08,5.79-2.34,8.13-4.35,1.58-1.36,4.01-1.32,5.39.24l.28.32c.7.79,1.7,1.22,2.75,1.2l14.33-.4c1.54-.04,2.85,1.05,3.98,2.1.47.43,1.07.76,1.79.76.4,0,.73-.1,1-.28.53-.34,1.02-.8,1.5-1.25.93-.87,1.85-1.73,3.07-1.77l35.87-1.29c1.88-.07,3.42,1.4,4.22,3.11.58,1.25,1.54,2.36,3.09,2.25,1.53,0,2.38-1.14,2.85-2.41.66-1.78,2.08-3.39,3.98-3.47l5.56-.23c1.84-.08,3.29,1.44,4.5,2.84.51.59,1.22,1.02,2.2.97,2.42-.12,4.07-3.69,4.07-7.52-.08-2.27-.16-6.74-.21-9.87-.03-1.89,1.46-3.45,3.35-3.52,1.85-.07,3.19,1.53,4.4,2.98.08.1.16.19.24.28.41.48.97.82,1.77.82,1.27,0,2.15-.94,2.73-1.98.8-1.43,2.12-2.66,3.76-2.73l16.36-.7c.96-.04,1.77.69,1.84,1.64.07,1.01-.72,1.87-1.73,1.9l-6.63.15c-1.48.04-2.78.99-3.16,2.42-.64,2.41-1.51,6.35-1.59,10.39-.13,6.51.76,14.92,6.49,15.17,5.7.25,60.08,2.66,60.58,2.68.02,0,0,0,.01,0,.49.03,26.75,1.53,29.78,1.66,3.05.12,5.47-.9,5.47-2.17,0-1.19-.22-9.93-.25-11.1,0-.08,0-.17-.02-.25-.11-1.3-.09-3.44.78-3.44h5.5c.31,0,.6.08.77.34.05.09.1.22.12.32.26,1.62.74,8.67.74,12.98-.03.99-.04,2.03-.05,3.06-.01,1.17-.02,2.32-.06,3.33-.08,1.95-2.33,3.59-4.28,3.72-2.71.17-6.37.32-8.64.42-.54.02-1,.04-1.35.05-2.92.13-27.8,3.3-28,3.32h0c-.67.08-53.33,6.51-54.72,6.76-1.4.25-1.27,2.68,0,2.68.21,0,1.39.07,3.32.19,9.81.6,38.95,2.38,57.77,1.85,19.33-.66,43.1-1.49,49.67-1.73,1.11-.04,2.16.45,2.89,1.29,2.73,3.15,9.86,10.88,15.69,13.02-.51.35-.68.55.04.55h5.7c.72,0,.55-.2.04-.55,5.83-2.14,12.96-9.87,15.69-13.02.73-.84,1.78-1.33,2.89-1.29,6.57.24,30.34,1.07,49.67,1.73,18.83.53,47.97-1.25,57.77-1.85,1.93-.12,3.11-.19,3.32-.19,1.27,0,1.4-2.43,0-2.68-1.4-.26-54.53-6.74-54.73-6.76h0Z"/>
  <path id="Outline-2" data-name="Outline" class="cls-6" d="M467.84,0C209.47,0,0,209.47,0,467.84s209.47,467.84,467.84,467.84c37.85,0,74.64-4.46,109.87-12.97-4.32-11.41-7.93-23.25-10.63-35.37-31.9,7.51-65.07,11.48-99.24,11.48-238.03,0-430.98-192.95-430.98-430.98S229.81,36.86,467.84,36.86s430.98,192.95,430.98,430.98c0,36.51-4.53,72.02-13.11,105.9,12.05,2.91,23.82,6.67,35.16,11.2,9.71-37.42,14.81-76.69,14.81-117.1C935.68,209.47,726.22,0,467.84,0Z"/>
</svg>
